<svg width="22" height="22" viewBox="0 0 22 22" fill="none" xmlns="http://www.w3.org/2000/svg">
<path d="M10.8814 18.9849V18.9848C10.8814 17.8214 9.98806 16.8687 8.87467 16.8687C7.76109 16.8687 6.86777 17.8214 6.86777 18.9846C6.86777 20.148 7.76109 21.1007 8.87467 21.1007H8.87478C9.9875 21.0994 10.8802 20.1476 10.8814 18.9849ZM7.7441 18.9848C7.74413 18.3161 8.25536 17.7838 8.87467 17.7838C9.4938 17.7838 10.005 18.3161 10.005 18.9846C10.005 19.6533 9.49386 20.1856 8.87478 20.1856C8.25574 20.1849 7.74483 19.6529 7.7441 18.9848Z" fill="#383838" stroke="#383838" stroke-width="0.2"/>
<path d="M15.936 21.1007H15.9359C14.823 21.0992 13.9307 20.1474 13.9293 18.9849L13.9293 18.9848C13.9293 17.8214 14.8226 16.8687 15.9362 16.8687C17.0498 16.8687 17.9431 17.8214 17.9429 18.9848L15.936 21.1007ZM15.936 21.1007C17.0496 21.1009 17.9429 20.1482 17.9429 18.9848L15.936 21.1007ZM17.0666 18.9846V18.9846C17.0667 19.6531 16.5553 20.1856 15.9362 20.1856C15.317 20.1856 14.8056 19.6533 14.8056 18.9848H14.7056L14.8056 18.9849C14.8063 18.3168 15.3172 17.7848 15.9361 17.7838C16.5552 17.7838 17.0666 18.3161 17.0666 18.9846Z" fill="#383838" stroke="#383838" stroke-width="0.2"/>
<path d="M3.40133 1.81506L3.40091 1.81506L1.33816 1.81506C1.09094 1.81506 0.9 1.60496 0.9 1.35754C0.9 1.11035 1.09091 0.900017 1.33816 0.900017H3.40071H3.40091V1.00002L3.40133 1.81506ZM3.40133 1.81506C4.02619 1.81249 4.56608 2.29433 4.66291 2.95866L4.66297 2.95905L6.29579 13.8637L3.40133 1.81506ZM6.90127 11.9833L7.16166 13.7225L7.16172 13.7229C7.25855 14.387 7.79845 14.8691 8.42331 14.8665L8.42372 14.8665H18.5169C18.7639 14.8665 18.955 15.0766 18.955 15.324C18.955 15.5712 18.7639 15.7815 18.5169 15.7815L8.42413 15.7815L6.90127 11.9833ZM6.90127 11.9833H17.1223H17.1224C18.0437 11.9829 18.859 11.3661 19.1584 10.4538L19.1584 10.4538L21.0762 4.60195M6.90127 11.9833L21.0762 4.60195M21.0762 4.60195C21.0762 4.6019 21.0762 4.60184 21.0762 4.60179L21.0762 4.60195ZM6.76413 11.0682L5.84206 4.91085L20.0486 4.91105L18.3294 10.1573C18.1495 10.7054 17.6632 11.068 17.1223 11.0682C17.1223 11.0682 17.1223 11.0682 17.1223 11.0682H6.76413Z" fill="#383838" stroke="#383838" stroke-width="0.2"/>
</svg>
